<svg width="23" height="33" viewBox="0 0 23 33" fill="none" xmlns="http://www.w3.org/2000/svg">
<path d="M22.9376 3.93747V0.631087C22.9376 0.344505 22.5766 0.186244 22.3329 0.361615L1.20163 15.4221C1.02209 15.5495 0.876814 15.7127 0.776881 15.8991C0.676948 16.0856 0.625 16.2904 0.625 16.4979C0.625 16.7054 0.676948 16.9102 0.776881 17.0967C0.876814 17.2831 1.02209 17.4462 1.20163 17.5736L22.3329 32.6342C22.5813 32.8095 22.9376 32.6513 22.9376 32.3647V29.0583C22.9376 28.8487 22.8298 28.6477 22.6516 28.5194L5.77663 16.5L22.6516 4.47642C22.8298 4.3481 22.9376 4.14706 22.9376 3.93747Z" fill="black"/>
</svg>
