<svg width="46" height="49" viewBox="0 0 46 49" fill="none" xmlns="http://www.w3.org/2000/svg">
<path d="M8.33333 1L1 10.2308V42.5385C1 43.7625 1.51508 44.9365 2.43192 45.802C3.34877 46.6676 4.59227 47.1538 5.88889 47.1538H40.1111C41.4077 47.1538 42.6512 46.6676 43.5681 45.802C44.4849 44.9365 45 43.7625 45 42.5385V10.2308L37.6667 1H8.33333Z" stroke="white" stroke-width="2" stroke-linecap="round" stroke-linejoin="round"/>
<path d="M1 10.2308H45" stroke="white" stroke-width="2" stroke-linecap="round" stroke-linejoin="round"/>
<path d="M32.7778 19.4615C32.7778 21.9097 31.7477 24.2576 29.914 25.9887C28.0803 27.7198 25.5933 28.6923 23.0001 28.6923C20.4068 28.6923 17.9198 27.7198 16.0861 25.9887C14.2524 24.2576 13.2223 21.9097 13.2223 19.4615" stroke="white" stroke-width="2" stroke-linecap="round" stroke-linejoin="round"/>
</svg>
