<svg width="723" height="656" viewBox="0 0 723 656" fill="none" xmlns="http://www.w3.org/2000/svg">
<path d="M227.535 618.427C229.578 623.886 229.369 629.934 226.953 635.24C224.553 640.511 220.17 644.621 214.755 646.679C209.341 648.736 203.334 648.573 198.04 646.225L18.0037 564.242C13.2289 562.068 9.51335 558.085 7.67451 553.172C5.83567 548.258 6.02415 542.815 8.19849 538.04L90.182 358.004C92.598 352.699 97.0225 348.57 102.482 346.527C107.942 344.484 113.99 344.693 119.295 347.109C124.601 349.525 128.729 353.95 130.772 359.41C132.815 364.869 132.606 370.917 130.19 376.223L58.2267 534.254L216.058 606.126C221.364 608.542 225.492 612.967 227.535 618.427Z" fill="white"/>
<path d="M479.5 318L496.53 336.979L479.5 318ZM720.4 36.1322C725.996 23.2084 720.056 8.19524 707.132 2.59939C694.208 -2.99647 679.195 2.944 673.599 15.8678L720.4 36.1322ZM54.5 533.5C62.2363 557.798 62.2405 557.797 62.2457 557.795C62.2489 557.794 62.2552 557.792 62.2615 557.79C62.2743 557.786 62.2914 557.781 62.3129 557.774C62.3557 557.76 62.416 557.741 62.4933 557.716C62.648 557.666 62.8711 557.595 63.1611 557.501C63.741 557.314 64.5882 557.039 65.6894 556.678C67.8917 555.957 71.1107 554.892 75.2399 553.497C83.4973 550.709 95.4011 546.6 110.099 541.286C139.48 530.663 180.112 515.19 225.155 495.773C314.498 457.258 424.01 402.053 496.53 336.979L462.47 299.021C396.486 358.229 293.498 410.774 204.966 448.939C161.073 467.861 121.424 482.96 92.7586 493.325C78.4339 498.504 66.8732 502.493 58.9218 505.178C54.9467 506.521 51.8752 507.537 49.8132 508.212C48.7823 508.55 48.0038 508.802 47.4911 508.968C47.2348 509.051 47.0449 509.112 46.9231 509.151C46.8622 509.17 46.8183 509.184 46.7917 509.193C46.7783 509.197 46.7693 509.2 46.7646 509.202C46.7623 509.202 46.7621 509.202 46.7609 509.203C46.7617 509.202 46.7637 509.202 54.5 533.5ZM496.53 336.979C549.514 289.437 589.664 251.491 624.469 206.569C659.452 161.417 688.365 110.12 720.4 36.1322L673.599 15.8678C642.635 87.3803 615.713 134.601 584.154 175.333C552.416 216.296 515.317 251.6 462.47 299.021L496.53 336.979Z" fill="white"/>
</svg>
