<?xml version="1.0" standalone="no"?>
<svg
  version="1.0"
  xmlns="http://www.w3.org/2000/svg"
  width="1024.000000pt"
  height="1024.000000pt"
  viewBox="0 0 1024.000000 1024.000000"
  preserveAspectRatio="xMidYMid meet">

<defs>
    <linearGradient id="myGradient" gradientUnits="userSpaceOnUse" x1="0" y1="0" x2="0" y2="1024">
      <stop offset="0%" stop-color="#FFFFFF"/>
      <stop offset="100%" stop-color="#000000"/>
    </linearGradient>
  </defs>

  <g transform="translate(0.000000,1024.000000) scale(0.100000,-0.100000)" fill="url('#myGradient')" stroke="none">
    <path
      d="M4965 9273 c-184 -22 -333 -61 -476 -122 -534 -231 -897 -721 -959
-1297 -8 -79 -10 -447 -8 -1354 4 -1235 4 -1246 26 -1345 43 -195 118 -388
212 -540 162 -263 433 -507 702 -629 440 -200 935 -192 1365 23 157 79 275
164 404 291 247 243 395 522 466 877 16 80 18 195 21 1323 2 852 0 1269 -8
1345 -20 202 -70 376 -161 560 -77 156 -170 285 -294 410 -303 303 -718 470
-1157 464 -57 -1 -116 -4 -133 -6z" />
    <path
      d="M2243 5788 c4 -660 7 -707 63 -958 62 -278 143 -495 282 -755 230
-428 600 -821 1022 -1083 334 -208 769 -365 1133 -408 l57 -6 0 -489 0 -489
-640 0 -640 0 0 -320 0 -320 1600 0 1600 0 0 320 0 320 -640 0 -640 0 0 488 0
488 114 17 c309 47 647 160 918 308 285 155 451 281 688 518 448 449 722 1001
816 1641 14 95 18 221 21 728 l4 612 -320 0 -319 0 -5 -602 c-5 -660 -6 -678
-72 -928 -78 -294 -233 -598 -429 -840 -292 -362 -720 -638 -1168 -754 -220
-58 -326 -71 -568 -71 -238 0 -346 13 -555 67 -491 126 -929 421 -1240 834
-163 216 -296 491 -367 753 -69 260 -70 274 -75 939 l-5 602 -319 0 -320 0 4
-612z" />
  </g>
</svg>
