<svg width="26" height="24" viewBox="0 0 26 24" fill="none" xmlns="http://www.w3.org/2000/svg">
<path fill-rule="evenodd" clip-rule="evenodd" d="M13 0.75C13.3647 0.75 13.7144 0.881696 13.9723 1.11612C14.2301 1.35054 14.375 1.66848 14.375 2V12C14.375 12.3315 14.2301 12.6495 13.9723 12.8839C13.7144 13.1183 13.3647 13.25 13 13.25H2C1.63533 13.25 1.28559 13.1183 1.02773 12.8839C0.769866 12.6495 0.625 12.3315 0.625 12C0.625 11.6685 0.769866 11.3505 1.02773 11.1161C1.28559 10.8817 1.63533 10.75 2 10.75H11.625V2C11.625 1.66848 11.7699 1.35054 12.0277 1.11612C12.2856 0.881696 12.6353 0.75 13 0.75V0.75Z" fill="#C8161D"/>
<path fill-rule="evenodd" clip-rule="evenodd" d="M11.625 12C11.625 11.6685 11.7699 11.3505 12.0277 11.1161C12.2856 10.8817 12.6353 10.75 13 10.75H24C24.3647 10.75 24.7144 10.8817 24.9723 11.1161C25.2301 11.3505 25.375 11.6685 25.375 12C25.375 12.3315 25.2301 12.6495 24.9723 12.8839C24.7144 13.1183 24.3647 13.25 24 13.25H14.375V22C14.375 22.3315 14.2301 22.6495 13.9723 22.8839C13.7144 23.1183 13.3647 23.25 13 23.25C12.6353 23.25 12.2856 23.1183 12.0277 22.8839C11.7699 22.6495 11.625 22.3315 11.625 22V12Z" fill="#C8161D"/>
</svg>
