<svg width="30" height="30" viewBox="0 0 30 30" fill="none" xmlns="http://www.w3.org/2000/svg">
<path fill-rule="evenodd" clip-rule="evenodd" d="M29.4558 0.896036C29.6266 1.06437 29.762 1.26434 29.8545 1.4845C29.9469 1.70466 29.9945 1.94068 29.9945 2.17904C29.9945 2.4174 29.9469 2.65342 29.8545 2.87358C29.762 3.09374 29.6266 3.29371 29.4558 3.46205L3.78405 28.8322C3.43973 29.1725 2.97273 29.3636 2.48579 29.3636C1.99885 29.3636 1.53185 29.1725 1.18754 28.8322C0.843216 28.4919 0.64978 28.0304 0.64978 27.5492C0.64978 27.068 0.843216 26.6065 1.18754 26.2662L26.8593 0.896036C27.0296 0.727276 27.232 0.593383 27.4547 0.502027C27.6775 0.410671 27.9163 0.363647 28.1575 0.363647C28.3987 0.363647 28.6376 0.410671 28.8603 0.502027C29.0831 0.593383 29.2855 0.727276 29.4558 0.896036V0.896036Z" fill="#C8161D"/>
<path fill-rule="evenodd" clip-rule="evenodd" d="M1.18764 0.896036C1.01688 1.06437 0.881393 1.26434 0.788951 1.4845C0.696509 1.70466 0.648926 1.94068 0.648926 2.17904C0.648926 2.4174 0.696509 2.65342 0.788951 2.87358C0.881393 3.09374 1.01688 3.29371 1.18764 3.46205L26.8594 28.8322C27.2037 29.1725 27.6707 29.3636 28.1576 29.3636C28.6446 29.3636 29.1116 29.1725 29.4559 28.8322C29.8002 28.4919 29.9937 28.0304 29.9937 27.5492C29.9937 27.068 29.8002 26.6065 29.4559 26.2662L3.78416 0.896036C3.61382 0.727276 3.41147 0.593383 3.1887 0.502027C2.96592 0.410671 2.72709 0.363647 2.4859 0.363647C2.24471 0.363647 2.00588 0.410671 1.7831 0.502027C1.56033 0.593383 1.35798 0.727276 1.18764 0.896036V0.896036Z" fill="#C8161D"/>
</svg>
